<svg width="100" height="100" viewBox="0 0 100 100" fill="none" xmlns="http://www.w3.org/2000/svg">
<rect x="0.5" y="0.5" width="99" height="99" rx="7.5" fill="black" stroke="#D2D2D2"/>
<path d="M80.1249 28C76.6874 24.25 71.6874 22.0625 66.6874 21.75H66.0624C59.8124 21.75 54.1874 24.875 50.4374 29.875C46.9999 23.3125 40.4374 19.25 33.2499 19.25H32.9374C27.6249 19.25 22.3124 21.4375 18.8749 25.5C15.1249 29.25 13.2499 34.5625 13.5624 39.875C14.1874 49.25 18.8749 53.9375 23.2499 58C28.2499 63 32.9374 67.0625 31.3749 78.9375C31.3749 80.8125 32.3124 82.0625 33.8749 82.0625C34.4999 82.0625 34.8124 82.0625 35.7499 81.75C68.2499 71.75 85.4374 58.3125 85.4374 43.3125V43C85.7499 37.0625 83.8749 32.0625 80.1249 28ZM33.8749 80.1875V78.625V80.1875Z" fill="white"/>
</svg>
