<svg width="100" height="100" viewBox="0 0 100 100" fill="none" xmlns="http://www.w3.org/2000/svg">
<rect x="0.5" y="0.5" width="99" height="99" rx="7.5" fill="#E6C6CA" stroke="#D2D2D2"/>
<path d="M59.95 16.125H39.05C25.8366 16.125 15.125 26.8366 15.125 40.05V60.95C15.125 74.1634 25.8366 84.875 39.05 84.875H59.95C73.1634 84.875 83.875 74.1634 83.875 60.95V40.05C83.875 26.8366 73.1634 16.125 59.95 16.125Z" fill="#AC5F27"/>
<path d="M69.0123 26.6719H60.6498C57.6929 26.6727 54.8574 27.8477 52.7665 29.9385C50.6757 32.0294 49.5007 34.865 49.4999 37.8219C49.499 34.865 48.324 32.0294 46.2332 29.9385C44.1423 27.8477 41.3068 26.6727 38.3499 26.6719H29.9874C27.0299 26.6719 24.1935 27.8465 22.102 29.9374C20.0105 32.0284 18.8351 34.8644 18.8342 37.8219V59.3094C18.8342 62.1121 19.3863 64.8874 20.459 67.4768C21.5316 70.0662 23.1039 72.4189 25.0859 74.4006C27.0678 76.3823 29.4208 77.9542 32.0103 79.0264C34.5998 80.0987 37.3752 80.6504 40.178 80.65H58.8217C61.6243 80.6504 64.3996 80.0987 66.9889 79.0264C69.5783 77.9541 71.931 76.3821 73.9127 74.4004C75.8945 72.4186 77.4664 70.0659 78.5387 67.4766C79.611 64.8872 80.1628 62.112 80.1623 59.3094V37.8219C80.1623 34.8647 78.9876 32.0287 76.8966 29.9376C74.8056 27.8466 71.9695 26.6719 69.0123 26.6719Z" fill="#F6B483"/>
<path d="M83.8753 56.5562C79.6261 62.9196 73.8537 68.1199 67.0829 71.6843C60.3121 75.2487 52.7577 77.0641 45.1066 76.9655C27.7878 76.9655 24.5972 73.8405 16.5378 69.0624C18.2089 73.6932 21.267 77.6961 25.2956 80.5258C29.3242 83.3554 34.1273 84.8741 39.0503 84.8749H59.9503C66.2956 84.8749 72.3811 82.3542 76.8679 77.8674C81.3547 73.3806 83.8753 67.2952 83.8753 60.9499V56.5562Z" fill="#924D22"/>
<path d="M55.9657 54.8032L50.75 51.0907C50.3853 50.83 49.9483 50.6899 49.5 50.6899C49.0518 50.6899 48.6147 50.83 48.25 51.0907L43.0344 54.8032C42.5903 55.1194 42.2827 55.5923 42.1736 56.1265C42.0646 56.6607 42.1623 57.2163 42.4469 57.6813L48.8188 68.0407C48.8898 68.1577 48.9898 68.2545 49.1092 68.3217C49.2285 68.3888 49.3631 68.4241 49.5 68.4241C49.637 68.4241 49.7716 68.3888 49.8909 68.3217C50.0102 68.2545 50.1103 68.1577 50.1813 68.0407L56.5532 57.6875C56.8397 57.222 56.9384 56.6649 56.8293 56.1293C56.7202 55.5936 56.4114 55.1195 55.9657 54.8032Z" fill="#D3793B"/>
<path d="M80.0434 61.5654C75.6562 66.477 70.2685 70.3925 64.2423 73.0487C58.2161 75.705 51.6911 77.0405 45.1059 76.9654C34.0403 76.9654 28.7434 75.6873 24.259 73.5279C26.259 75.7723 28.7115 77.5678 31.4552 78.7964C34.1989 80.0249 37.1716 80.6587 40.1778 80.6561H58.8215C64.0917 80.6554 69.1753 78.705 73.0934 75.1804C77.0115 71.6557 79.4871 66.8061 80.0434 61.5654Z" fill="#DD996C"/>
<path d="M34.0472 35.853C32.967 35.8518 31.9108 36.171 31.0121 36.7703C30.1134 37.3695 29.4127 38.2219 28.9986 39.2196C28.5845 40.2172 28.4757 41.3153 28.6859 42.3748C28.8961 43.4343 29.4159 44.4076 30.1795 45.1717C30.943 45.9357 31.9161 46.456 32.9755 46.6668C34.0349 46.8776 35.133 46.7694 36.1309 46.3559C37.1287 45.9424 37.9815 45.2422 38.5813 44.3438C39.1811 43.4455 39.5009 42.3894 39.5003 41.3093C39.4995 39.863 38.9248 38.4761 37.9024 37.4531C36.88 36.4302 35.4935 35.8547 34.0472 35.853Z" fill="white"/>
<path d="M34.0466 39.5938C33.7064 39.5931 33.3736 39.6935 33.0905 39.8821C32.8074 40.0707 32.5866 40.3391 32.4561 40.6533C32.3257 40.9675 32.2914 41.3134 32.3576 41.647C32.4238 41.9807 32.5876 42.2873 32.8281 42.5278C33.0687 42.7684 33.3752 42.9322 33.7089 42.9984C34.0426 43.0646 34.3884 43.0303 34.7026 42.8998C35.0168 42.7693 35.2852 42.5486 35.4738 42.2654C35.6625 41.9823 35.7628 41.6496 35.7622 41.3094C35.7622 40.8544 35.5814 40.418 35.2597 40.0962C34.938 39.7745 34.5016 39.5938 34.0466 39.5938Z" fill="#4B2712"/>
<path d="M64.9938 35.853C63.9132 35.85 62.8561 36.1676 61.9562 36.7657C61.0563 37.3639 60.3541 38.2156 59.9386 39.2131C59.5231 40.2106 59.4129 41.3089 59.622 42.369C59.8312 43.4292 60.3502 44.4034 61.1134 45.1683C61.8766 45.9333 62.8496 46.4545 63.9093 46.6661C64.9689 46.8777 66.0675 46.77 67.0659 46.3568C68.0644 45.9436 68.9177 45.2434 69.5179 44.3448C70.1181 43.4463 70.4382 42.3899 70.4375 41.3093C70.4367 39.8646 69.8633 38.4792 68.843 37.4565C67.8226 36.4338 66.4385 35.8572 64.9938 35.853Z" fill="white"/>
<path d="M64.9912 39.5938C64.6511 39.5938 64.3187 39.6946 64.036 39.8836C63.7533 40.0726 63.533 40.3412 63.403 40.6555C63.273 40.9697 63.2391 41.3155 63.3057 41.649C63.3723 41.9825 63.5363 42.2887 63.777 42.5289C64.0177 42.7692 64.3242 42.9326 64.6578 42.9986C64.9914 43.0646 65.3371 43.0301 65.6511 42.8995C65.9651 42.769 66.2333 42.5482 66.4218 42.2651C66.6103 41.9821 66.7106 41.6494 66.71 41.3094C66.7091 40.8541 66.5277 40.4177 66.2054 40.0961C65.8832 39.7744 65.4465 39.5937 64.9912 39.5938Z" fill="#4B2712"/>
</svg>
