<svg width="100" height="100" viewBox="0 0 100 100" fill="none" xmlns="http://www.w3.org/2000/svg">
<rect x="0.5" y="0.5" width="99" height="99" rx="7.5" stroke="#D2D2D2"/>
<path d="M66.754 74.3373C66.754 74.3373 74.0103 73.8002 76.3756 64.3008C78.7408 54.8015 78.805 46.08 77.2503 40.9533C75.6955 35.8267 72.1967 34.8121 72.1967 34.8121C72.1967 34.8121 73.8875 31.3545 68.2559 25.834C64.6665 22.3207 44.2125 16.0183 32.1407 25.834C18.6671 36.7915 22.351 51.8433 25.7175 57.2464L66.754 74.3373Z" fill="#002030"/>
<path d="M66.7537 74.3367C70.0238 71.7843 75.2549 68.5495 75.2077 48.6099H68.7845L66.7537 74.3367Z" fill="#002030"/>
<path d="M48.1947 79.6664C54.6368 79.6664 62.1519 78.8607 66.7539 74.3368C71.3559 69.8129 71.815 58.1849 69.053 46.7181C66.2911 35.2512 55.7098 32.665 48.1947 32.665C40.6796 32.665 30.0965 35.2512 27.3345 46.7181C24.5725 58.1849 25.0184 68.3388 30.0889 73.3859C34.6702 77.9376 41.7526 79.6664 48.1947 79.6664Z" fill="#FFC8AC"/>
<path d="M54.0471 70.5493C54.0471 70.5493 53.2083 74.727 48.4325 74.7688C42.9274 74.8145 42.6233 70.4478 42.6233 70.4478C42.6233 70.4478 43.5849 70.408 48.0244 70.4717C51.0528 70.5135 54.0471 70.5493 54.0471 70.5493Z" fill="#8E3257"/>
<path d="M48.4326 74.7688C47.3648 74.806 46.302 74.599 45.3174 74.1621C46.2375 73.2305 47.4569 72.6979 48.733 72.67C49.8964 72.6061 51.0463 72.9564 51.9975 73.6647C51.1663 74.2735 50.0195 74.7549 48.4326 74.7688Z" fill="#EE7BA5"/>
<path d="M47.0874 64.6245C45.4041 64.5628 43.8758 65.6888 43.8947 66.216C43.9174 67.4475 49.8796 67.6981 49.8154 66.216C49.7832 65.3864 48.5307 64.6742 47.0874 64.6245Z" fill="#FCA39A"/>
<path d="M43.738 66.5463C44.796 65.7107 45.5649 64.8812 47.0063 64.8752C48.3287 64.8752 49.039 65.6212 49.7664 66.6656C49.8911 66.8447 50.2103 66.8506 50.1782 66.5701C49.8136 63.421 44.4484 63.7154 43.6776 66.4587C43.6662 66.4945 43.687 66.59 43.738 66.5502V66.5463Z" fill="#9E5147"/>
<path d="M59.2936 50.9224C57.07 50.9224 53.7923 52.3149 52.8459 55.6969C51.6954 59.793 54.0814 63.7718 59.2936 63.5768C64.8856 63.3679 66.8635 59.8706 66.2647 56.614C65.6242 53.1385 63.1966 50.9363 59.2936 50.9224Z" fill="white"/>
<path d="M52.7568 56.4127C53.7959 53.1103 57.3777 51.0692 60.5685 51.7456C61.8607 52.0201 63.253 52.7681 64.1069 53.8404C65.0628 55.034 65.1988 56.5957 66.0962 57.7913C66.2379 57.9803 66.61 58.0937 66.7404 57.8251C67.5754 56.1083 66.2719 53.8722 65.1082 52.6348C63.8972 51.3437 62.0855 50.4803 60.3758 50.2734C58.5803 50.0567 56.7674 50.4768 55.2241 51.467C53.4369 52.6607 52.925 54.2323 52.6132 56.3589C52.5962 56.4783 52.7134 56.5579 52.7568 56.4127Z" fill="#002030"/>
<path d="M53.2253 58.2951C53.2253 57.25 53.5196 56.2284 54.071 55.3595C54.6223 54.4906 55.406 53.8134 56.3228 53.4134C57.2397 53.0135 58.2486 52.9089 59.2219 53.1128C60.1952 53.3166 61.0893 53.8199 61.791 54.5588C62.4927 55.2978 62.9706 56.2393 63.1642 57.2642C63.3578 58.2892 63.2585 59.3516 62.8787 60.3171C62.4989 61.2826 61.8558 62.1078 61.0306 62.6884C60.2055 63.269 59.2354 63.5789 58.243 63.5789C57.584 63.5792 56.9314 63.4427 56.3225 63.1772C55.7136 62.9118 55.1604 62.5226 54.6944 62.0319C54.2284 61.5412 53.8589 60.9586 53.6068 60.3174C53.3547 59.6762 53.2251 58.989 53.2253 58.2951Z" fill="#19313A"/>
<path d="M54.2568 57.815C54.2568 57.4809 54.3509 57.1544 54.5271 56.8766C54.7034 56.5989 54.9539 56.3824 55.247 56.2545C55.54 56.1267 55.8625 56.0933 56.1736 56.1584C56.4848 56.2236 56.7706 56.3845 56.9949 56.6207C57.2192 56.8569 57.3719 57.1578 57.4338 57.4855C57.4957 57.8131 57.4639 58.1527 57.3426 58.4613C57.2212 58.7699 57.0156 59.0337 56.7518 59.2193C56.4881 59.4049 56.178 59.504 55.8607 59.504C55.4355 59.5034 55.0278 59.3253 54.7272 59.0087C54.4265 58.6921 54.2573 58.2628 54.2568 57.815Z" fill="white"/>
<path d="M37.1632 50.9224C39.3887 50.9224 42.6626 52.3149 43.611 55.6969C44.7615 59.793 42.3735 63.7718 37.1632 63.5768C31.5713 63.3679 29.5914 59.8706 30.1922 56.614C30.8326 53.1385 33.2602 50.9363 37.1632 50.9224Z" fill="white"/>
<path d="M43.8417 56.3173C43.5054 54.1171 42.6459 52.3982 40.7491 51.2504C39.8516 50.7247 38.8638 50.3923 37.8431 50.2724C36.8225 50.1526 35.7894 50.2476 34.8039 50.5521C33.4343 50.9818 32.0325 51.7895 31.0898 52.9394C30.1471 54.0892 28.8228 56.196 29.7561 57.684C29.9091 57.9248 30.2831 58.1456 30.4777 57.8253C31.0804 56.8306 31.2334 55.637 31.8228 54.6283C32.484 53.4964 33.4078 52.7523 34.5527 52.2132C38.0684 50.56 42.5004 52.4778 43.6944 56.4228C43.7435 56.5839 43.8587 56.4228 43.8417 56.3173Z" fill="#002030"/>
<path d="M43.2313 58.2946C43.2313 57.2495 42.9371 56.228 42.3857 55.359C41.8344 54.4901 41.0507 53.8129 40.1339 53.413C39.217 53.013 38.2081 52.9084 37.2348 53.1123C36.2615 53.3161 35.3674 53.8194 34.6657 54.5583C33.964 55.2973 33.4861 56.2388 33.2925 57.2638C33.0989 58.2887 33.1982 59.3511 33.578 60.3166C33.9578 61.2821 34.6009 62.1073 35.426 62.6879C36.2512 63.2685 37.2213 63.5784 38.2137 63.5784C39.5445 63.5784 40.8207 63.0217 41.7617 62.0308C42.7027 61.0399 43.2313 59.6959 43.2313 58.2946Z" fill="#19313A"/>
<path d="M37.3599 57.8155C37.3599 57.4814 37.2658 57.1549 37.0896 56.8771C36.9134 56.5994 36.6629 56.3829 36.3698 56.255C36.0767 56.1272 35.7542 56.0937 35.4431 56.1589C35.132 56.2241 34.8462 56.385 34.6219 56.6212C34.3976 56.8574 34.2448 57.1583 34.1829 57.486C34.121 57.8136 34.1528 58.1532 34.2742 58.4618C34.3956 58.7704 34.6012 59.0342 34.8649 59.2198C35.1287 59.4054 35.4388 59.5045 35.756 59.5045C36.1812 59.5039 36.5889 59.3258 36.8896 59.0092C37.1903 58.6925 37.3594 58.2632 37.3599 57.8155Z" fill="white"/>
<path d="M63.877 48.4408C63.9196 48.3334 63.9314 48.2151 63.911 48.1006C63.7882 47.5038 63.4746 47.0721 63.093 46.6305C62.5648 46.0428 61.9514 45.5473 61.2756 45.1623C59.9721 44.3903 58.4885 44.0208 56.9947 44.096C56.7134 44.0955 56.4355 44.16 56.1805 44.285C56.0211 44.3782 55.8859 44.5114 55.7871 44.6728C55.6882 44.8341 55.6287 45.0187 55.6137 45.2101C55.5646 45.9163 56.103 46.2445 56.6943 46.338L58.0337 46.5529C58.3606 46.6046 58.6874 46.6563 59.0123 46.726C60.1003 46.9571 61.1446 47.3758 62.103 47.9654C62.4997 48.2081 62.8908 48.4846 63.3385 48.5841C63.4935 48.6099 63.8014 48.6517 63.877 48.4408Z" fill="#002030"/>
<path d="M31.5305 47.9254C31.5012 47.8135 31.5012 47.6952 31.5305 47.5833C31.6967 47.0023 32.0406 46.5886 32.4543 46.1907C33.0234 45.6474 33.6714 45.2034 34.3737 44.8757C35.7293 44.2115 37.2353 43.9633 38.7188 44.1595C38.9994 44.1815 39.2717 44.2692 39.516 44.4161C39.6685 44.5215 39.794 44.6649 39.8813 44.8335C39.9687 45.0022 40.0151 45.1909 40.0166 45.383C40.0166 46.0912 39.4499 46.3777 38.8567 46.4214L37.5059 46.5249C37.1753 46.5508 36.8466 46.5766 36.5179 46.6184C35.4154 46.7646 34.3431 47.1007 33.3441 47.6131C32.9323 47.812 32.5223 48.0667 32.067 48.1283C31.9008 48.1343 31.591 48.1423 31.5305 47.9254Z" fill="#002030"/>
<path d="M70.2886 53.3426C71.031 50.8539 74.2861 47.3506 78.0455 48.8744C81.805 50.3983 82.6721 56.3366 80.577 60.7451C78.4819 65.1536 72.7596 66.779 70.6305 63.5721L70.2886 53.3426Z" fill="#FFC8AC"/>
<path d="M70.0769 56.4564C70.0297 56.6036 70.2205 56.9199 70.3867 56.8045C71.0952 56.3151 71.5996 55.5989 72.3401 55.1593C73.1235 54.7064 74.0228 54.526 74.9094 54.644C75.3231 55.2408 75.6953 55.7143 75.6065 56.6334C75.5322 57.4798 75.207 58.2801 74.677 58.9212C74.2614 59.3867 73.6342 59.518 73.1241 59.8403C73.0844 59.8642 73.0448 59.9955 73.1109 60.0114C75.5272 60.6321 77.1481 57.091 76.4037 55.0379C77.7677 55.6347 78.8974 56.8463 78.8257 58.5293C78.8257 58.6069 78.8993 58.589 78.922 58.5293C80.917 53.2713 71.6468 51.4132 70.0769 56.4564Z" fill="#9E5147"/>
<path d="M69.5349 48.8748C69.5349 48.8748 64.9594 44.8682 62.307 36.5525L61.3378 36.9782C52.3434 40.9226 42.2404 41.0047 33.1892 37.207C31.9594 38.7548 27.0645 40.7342 25.7119 57.2501C25.7119 57.2501 22.2415 43.0001 28.4927 33.6042C34.744 24.2084 45.7994 22.6288 58.2434 24.9862C66.5973 26.5698 75.6823 33.4908 75.2081 48.6102C74.3466 55.1752 71.1162 58.8914 70.4323 57.66C69.7484 56.4285 69.8655 50.6135 69.5349 48.8748L75.2024 48.6102Z" fill="#002030"/>
<path d="M77.0517 33.4133C76.1165 31.6627 72.4213 33.3775 71.762 34.607C71.66 34.8059 71.4918 35.16 71.6052 35.3749C71.983 36.091 73.1581 34.8178 73.398 34.6607C74.2122 34.1275 75.9918 33.2363 76.9874 33.5705C77.0706 33.5944 77.0838 33.471 77.0517 33.4133Z" fill="#002030"/>
</svg>
