<svg width="100" height="100" viewBox="0 0 100 100" fill="none" xmlns="http://www.w3.org/2000/svg">
<rect x="0.5" y="0.5" width="99" height="99" rx="7.5" stroke="#D2D2D2"/>
<path d="M69.8443 33.5483C69.8443 33.5483 74.1138 34.4396 76.0785 40.4933C78.0433 46.547 80.1497 69.3633 65.9072 74.4721L69.8443 33.5483Z" fill="#CC5440"/>
<path d="M69.686 26.6787C70.6306 27.5123 70.7496 29.7245 70.6306 30.8565C70.504 32.0342 70.0317 32.625 69.3176 33.5202C68.9587 33.9699 68.9152 33.9082 68.7376 34.4433C68.6602 34.6741 68.9908 34.8412 69.1608 34.7815C71.1634 34.0653 71.7452 31.2185 71.3825 29.2968C71.203 28.3478 70.7799 26.7106 69.7332 26.452C69.6256 26.4261 69.6369 26.631 69.6898 26.6787H69.686Z" fill="#CC5440"/>
<path d="M74.6616 33.6343C74.0665 31.7642 70.2012 32.6993 69.3492 33.7477C69.217 33.9108 68.9903 34.2291 69.0621 34.4579C69.3001 35.2238 70.6584 34.2251 70.9172 34.1197C71.7976 33.7636 73.6697 33.2523 74.5709 33.7696C74.6483 33.8133 74.6804 33.69 74.6616 33.6343Z" fill="#CC5440"/>
<path d="M69.8442 33.548C69.8442 33.548 70.0577 23.4598 56.3234 20.3285C41.4481 16.9466 30.2529 21.6833 23.1213 31.3517C17.3745 39.1442 15.7535 57.1382 25.6112 57.6913C35.4689 58.2443 69.8442 33.548 69.8442 33.548ZM65.9072 74.4718C69.1188 71.9651 74.2498 68.7881 74.2101 49.2065H67.8965L65.9072 74.4718Z" fill="#CC5440"/>
<path d="M47.6808 79.7062C54.0076 79.7062 61.3886 78.9104 65.9075 74.4721C70.4264 70.0338 70.8779 58.6107 68.1745 47.3487C65.4711 36.0868 55.0694 33.5483 47.6884 33.5483C40.3074 33.5483 29.9075 36.0868 27.1966 47.3487C24.4856 58.6107 24.9296 70.0278 29.4636 74.4721C33.9976 78.9164 41.3559 79.7062 47.6808 79.7062Z" fill="#FFC8AC"/>
<path d="M26.4522 67.4896C26.4536 66.5433 26.7215 65.6186 27.2219 64.8325C27.7222 64.0465 28.4326 63.4342 29.2633 63.0731C30.094 62.7121 31.0077 62.6184 31.8889 62.804C32.7701 62.9896 33.5793 63.4461 34.2142 64.1158C34.8491 64.7855 35.2813 65.6384 35.456 66.5667C35.6308 67.4949 35.5404 68.4569 35.1961 69.3311C34.8519 70.2052 34.2693 70.9523 33.522 71.4779C32.7747 72.0035 31.8962 72.284 30.9975 72.284C30.4 72.284 29.8083 72.16 29.2563 71.9189C28.7044 71.6779 28.203 71.3246 27.7808 70.8793C27.3586 70.434 27.024 69.9054 26.796 69.3237C26.568 68.7421 26.4512 68.1188 26.4522 67.4896ZM58.808 67.4896C58.808 66.5424 59.0748 65.6165 59.5748 64.8291C60.0747 64.0417 60.7853 63.4283 61.6165 63.0663C62.4477 62.7044 63.3622 62.6103 64.2442 62.796C65.1262 62.9816 65.9361 63.4387 66.5713 64.1093C67.2066 64.7799 67.6386 65.6339 67.8127 66.5631C67.9868 67.4924 67.8951 68.4552 67.5494 69.3296C67.2036 70.204 66.6193 70.9507 65.8703 71.4752C65.1213 71.9997 64.2414 72.2784 63.342 72.2761C62.1383 72.2734 60.9848 71.7679 60.1347 70.8705C59.2846 69.9731 58.8074 68.7571 58.808 67.4896Z" fill="#FCA39A"/>
<path d="M61.5398 37.3662C61.5398 37.3662 62.424 46.1573 64.6192 49.1036C66.8144 52.0499 54.6897 51.4392 51.9712 41.345C51.9712 41.345 53.7735 49.4239 52.0184 50.6494C50.2634 51.8748 37.2602 52.0738 32.9548 38.0148L61.5398 37.3662Z" fill="#CC5440"/>
<path d="M46.5948 64.9335C44.9418 64.8738 43.4493 65.9779 43.4588 66.4952C43.4815 67.7047 49.336 67.9514 49.2736 66.4952C49.2396 65.6835 48.0136 64.9832 46.5948 64.9335Z" fill="#FCA39A"/>
<path d="M43.3092 66.8212C44.3464 66.0016 45.102 65.1859 46.5208 65.182C47.8243 65.182 48.5177 65.9141 49.2318 66.9346C49.3546 67.1097 49.6701 67.1176 49.6379 66.8411C49.2771 63.7496 44.0082 64.0361 43.2525 66.7317C43.2412 66.7675 43.262 66.859 43.313 66.8212H43.3092Z" fill="#9E5147"/>
<path d="M58.5812 51.4766C56.3954 51.4766 53.1781 52.8532 52.2487 56.1616C51.1152 60.1841 53.4634 64.0913 58.5812 63.9003C64.073 63.7014 66.015 60.2597 65.4275 57.0707C64.7965 53.653 62.4124 51.4905 58.5812 51.4766Z" fill="white"/>
<path d="M52.161 56.8701C53.1811 53.6254 56.695 51.6221 59.8329 52.2945C61.1005 52.5631 62.4683 53.2992 63.3089 54.3516C64.2535 55.5273 64.3801 57.0571 65.2605 58.2309C65.4003 58.4159 65.7649 58.5273 65.8933 58.2647C66.7132 56.5797 65.4343 54.3814 64.2913 53.1679C63.1011 51.8986 61.3159 51.0531 59.6421 50.8482C57.8788 50.634 56.0981 51.0464 54.5829 52.02C52.8278 53.1977 52.3272 54.7355 52.0193 56.8244C52.0023 56.9417 52.1175 57.0134 52.161 56.8781V56.8701Z" fill="#002030"/>
<path d="M52.6172 58.7162C52.6172 57.6896 52.9063 56.686 53.448 55.8324C53.9897 54.9788 54.7595 54.3136 55.6603 53.9208C56.561 53.528 57.5521 53.4253 58.5083 53.6258C59.4645 53.8262 60.3427 54.3207 61.0319 55.0468C61.7212 55.7729 62.1904 56.6979 62.3804 57.7048C62.5704 58.7118 62.4725 59.7554 62.0992 60.7038C61.7258 61.6522 61.0938 62.4627 60.283 63.0327C59.4722 63.6028 58.5191 63.9069 57.5441 63.9065C56.897 63.9065 56.2561 63.7722 55.6582 63.5114C55.0604 63.2505 54.5171 62.8682 54.0596 62.3862C53.6021 61.9042 53.2392 61.332 52.9917 60.7023C52.7442 60.0726 52.6169 59.3977 52.6172 58.7162Z" fill="#19313A"/>
<path d="M53.7168 58.2471C53.7164 57.9188 53.8085 57.5979 53.9814 57.3248C54.1543 57.0517 54.4003 56.8387 54.6881 56.7128C54.976 56.5869 55.2928 56.5538 55.5986 56.6176C55.9043 56.6814 56.1853 56.8392 56.4058 57.0712C56.6263 57.3031 56.7766 57.5988 56.8375 57.9207C56.8985 58.2426 56.8674 58.5763 56.7482 58.8796C56.629 59.1828 56.4271 59.4421 56.1679 59.6245C55.9088 59.8069 55.6041 59.9042 55.2924 59.9042C54.8748 59.9042 54.4744 59.7297 54.1789 59.419C53.8835 59.1083 53.7173 58.6868 53.7168 58.2471Z" fill="white"/>
<path d="M35.9283 51.4766C38.1141 51.4766 41.3314 52.8532 42.2608 56.1616C43.3943 60.1841 41.0461 64.0913 35.9283 63.9003C30.4365 63.7014 28.4945 60.2597 29.082 57.0707C29.713 53.653 32.0971 51.4905 35.9283 51.4766Z" fill="white"/>
<path d="M42.4874 56.7669C42.1568 54.6064 41.3142 52.9194 39.4496 51.7934C38.568 51.2781 37.5982 50.952 36.5961 50.8342C35.5941 50.7164 34.5798 50.8092 33.612 51.1071C32.267 51.5308 30.8898 52.3226 29.9641 53.4526C29.0384 54.5826 27.7386 56.6515 28.6549 58.1117C28.8041 58.3485 29.1725 58.5653 29.3633 58.251C29.9565 57.2722 30.102 56.1064 30.6857 55.1097C31.3356 53.9997 32.2443 53.2676 33.3683 52.7384C36.8199 51.115 41.1725 52.999 42.3457 56.8723C42.3929 57.0315 42.5044 56.8723 42.4892 56.7689L42.4874 56.7669Z" fill="#002030"/>
<path d="M41.8889 58.7162C41.8889 57.6896 41.5998 56.686 41.0581 55.8324C40.5165 54.9788 39.7466 54.3136 38.8458 53.9208C37.9451 53.528 36.954 53.4253 35.9978 53.6258C35.0417 53.8262 34.1634 54.3207 33.4742 55.0468C32.785 55.7729 32.3157 56.6979 32.1257 57.7048C31.9358 58.7118 32.0336 59.7554 32.407 60.7038C32.7803 61.6522 33.4124 62.4627 34.2232 63.0327C35.0339 63.6028 35.9871 63.9069 36.962 63.9065C37.6092 63.9065 38.25 63.7722 38.8479 63.5114C39.4458 63.2505 39.989 62.8682 40.4465 62.3862C40.9041 61.9042 41.2669 61.332 41.5144 60.7023C41.7619 60.0726 41.8892 59.3977 41.8889 58.7162Z" fill="#19313A"/>
<path d="M34.7477 59.9057C35.6178 59.9057 36.3232 59.1629 36.3232 58.2465C36.3232 57.3302 35.6178 56.5874 34.7477 56.5874C33.8775 56.5874 33.1721 57.3302 33.1721 58.2465C33.1721 59.1629 33.8775 59.9057 34.7477 59.9057Z" fill="white"/>
<path d="M63.0833 49.0416C63.1241 48.9358 63.1353 48.8198 63.1154 48.7074C62.9945 48.1265 62.6865 47.6968 62.3106 47.2611C61.7933 46.684 61.1911 46.1984 60.5272 45.8228C59.2478 45.0632 57.7909 44.6992 56.3238 44.7724C56.047 44.7722 55.7736 44.836 55.5228 44.9594C55.3648 45.0499 55.2304 45.18 55.1316 45.3383C55.0327 45.4965 54.9724 45.678 54.9561 45.8666C54.9088 46.5609 55.4359 46.8832 56.0159 46.9767L57.3383 47.1855C57.6595 47.2373 57.9806 47.289 58.298 47.3566C59.3673 47.5838 60.3937 47.9951 61.3358 48.5741C61.7136 48.8129 62.1085 49.0834 62.5486 49.1809C62.7054 49.2068 63.0077 49.2485 63.0833 49.0416Z" fill="#A03717"/>
<path d="M31.3169 48.5343C31.2863 48.4246 31.2863 48.3079 31.3169 48.1981C31.4812 47.6272 31.8194 47.2253 32.2256 46.8234C32.7858 46.2896 33.4236 45.8537 34.1148 45.5323C35.4424 44.883 36.9166 44.6397 38.3692 44.8301C38.6451 44.8519 38.9129 44.9382 39.1532 45.0827C39.3027 45.1863 39.4258 45.327 39.5114 45.4925C39.5971 45.658 39.6428 45.8432 39.6444 46.0317C39.6444 46.7279 39.0908 47.0065 38.5109 47.0522L37.1884 47.1537C36.8635 47.1775 36.5404 47.2034 36.2174 47.2452C35.1351 47.3856 34.082 47.7122 33.1003 48.212C32.696 48.411 32.2936 48.6577 31.8459 48.7193C31.6796 48.7392 31.3755 48.7472 31.3169 48.5343Z" fill="#A03717"/>
<path d="M69.3774 53.8541C70.1086 51.4092 73.3031 47.9715 76.9965 49.4656C80.6898 50.9596 81.5399 56.7945 79.4807 61.1313C77.4215 65.4682 71.8031 67.0557 69.7137 63.9065L69.3774 53.8541Z" fill="#FFC8AC"/>
<path d="M69.17 56.9112C69.1246 57.0564 69.3117 57.3667 69.4741 57.2533C70.1694 56.7719 70.6662 56.0697 71.3935 55.636C72.1649 55.1905 73.0506 55.0143 73.9231 55.1327C74.3312 55.7295 74.6958 56.183 74.6089 57.0942C74.5363 57.9258 74.2171 58.7123 73.6964 59.3422C73.2884 59.7998 72.6706 59.939 72.17 60.2454C72.1322 60.2692 72.0925 60.3966 72.1568 60.4125C74.5315 61.0232 76.124 57.5438 75.3929 55.5305C76.7323 56.1273 77.8394 57.3051 77.7695 58.9582C77.7695 59.0358 77.8432 59.0179 77.864 58.9582C79.8211 53.7819 70.7115 51.9596 69.17 56.9112Z" fill="#9E5147"/>
<path d="M68.639 49.4658C68.639 49.4658 64.1408 45.5308 61.5395 37.3663L54.6497 40.3862C49.6266 42.5881 43.985 42.6345 38.9299 40.5155L32.9544 38.0089C31.7473 39.5288 26.9393 41.4724 25.6112 57.6919C25.6112 57.6919 22.2107 43.6985 28.3411 34.4698C34.4714 25.241 45.3285 23.6913 57.5476 26.0069C65.758 27.5626 74.6748 34.3623 74.2101 49.2072C73.3619 55.6468 70.1918 59.3033 69.5193 58.0938C68.8468 56.8842 68.9658 51.1747 68.639 49.4658L74.2101 49.2072L68.639 49.4658Z" fill="#CC5440"/>
<path d="M42.1472 72.6199C45.952 75.0072 52.2486 73.9727 55.2108 70.5828C55.5263 70.2207 54.833 69.8725 54.561 70.1948C51.5817 73.6166 46.0597 73.9488 42.1926 72.2936C41.9791 72.2021 42.0036 72.5364 42.1472 72.6199Z" fill="#9E5147"/>
<path d="M54.5067 69.0367C54.1289 69.4346 54.5162 70.1508 54.8204 70.4492C55.1699 70.7913 55.7782 71.1156 56.2656 70.9366C56.4299 70.8749 56.6094 70.664 56.4262 70.4949C56.2845 70.3616 55.935 70.479 55.7479 70.4372C55.0678 70.286 54.8676 69.6932 54.6579 69.0844C54.6314 69.0128 54.5596 68.981 54.5067 69.0367Z" fill="#9E5147"/>
</svg>
