<svg width="138" height="138" viewBox="0 0 138 138" fill="none" xmlns="http://www.w3.org/2000/svg">
<g filter="url(#filter0_d)">
<rect x="18.5" y="14.5" width="101" height="101" rx="8.5" stroke="#D2D2D2"/>
</g>
<path d="M99.1249 43C95.6874 39.25 90.6874 37.0625 85.6874 36.75H85.0624C78.8124 36.75 73.1874 39.875 69.4374 44.875C65.9999 38.3125 59.4374 34.25 52.2499 34.25H51.9374C46.6249 34.25 41.3124 36.4375 37.8749 40.5C34.1249 44.25 32.2499 49.5625 32.5624 54.875C33.1874 64.25 37.8749 68.9375 42.2499 73C47.2499 78 51.9374 82.0625 50.3749 93.9375C50.3749 95.8125 51.3124 97.0625 52.8749 97.0625C53.4999 97.0625 53.8124 97.0625 54.7499 96.75C87.2499 86.75 104.437 73.3125 104.437 58.3125V58C104.75 52.0625 102.875 47.0625 99.1249 43ZM52.8749 95.1875V93.625V95.1875Z" fill="black"/>
<defs>
<filter id="filter0_d" x="0" y="0" width="138" height="138" filterUnits="userSpaceOnUse" color-interpolation-filters="sRGB">
<feFlood flood-opacity="0" result="BackgroundImageFix"/>
<feColorMatrix in="SourceAlpha" type="matrix" values="0 0 0 0 0 0 0 0 0 0 0 0 0 0 0 0 0 0 127 0"/>
<feOffset dy="4"/>
<feGaussianBlur stdDeviation="9"/>
<feColorMatrix type="matrix" values="0 0 0 0 0.756863 0 0 0 0 0.203922 0 0 0 0 0.956863 0 0 0 0.2 0"/>
<feBlend mode="normal" in2="BackgroundImageFix" result="effect1_dropShadow"/>
<feBlend mode="normal" in="SourceGraphic" in2="effect1_dropShadow" result="shape"/>
</filter>
</defs>
</svg>
