<svg width="100" height="100" viewBox="0 0 100 100" fill="none" xmlns="http://www.w3.org/2000/svg">
<rect x="0.5" y="0.5" width="99" height="99" rx="7.5" stroke="#D2D2D2"/>
<path d="M17.367 47.4333L30.567 59.5333L26.9003 76.4C26.5336 78.6 27.267 80.8 29.1003 81.9C29.8336 82.6333 30.9337 83 32.0336 83C32.767 83 33.5003 83 34.2337 82.6333C34.2337 82.6333 34.6003 82.6333 34.6003 82.2667L49.6336 73.8333L64.667 82.2667C64.667 82.2667 65.0337 82.2667 65.0337 82.6333C66.867 83.3667 69.067 83.3667 70.5337 82.2667C72.367 81.1667 73.1003 78.9667 72.7337 76.7667L69.067 59.9C70.5337 58.8 72.7336 56.6 74.9336 54.4L81.9003 48.1667L82.267 47.8C83.7336 46.3333 84.1003 44.1333 83.367 42.3C82.6337 40.4667 81.167 39 78.967 38.6333H78.6003L61.367 36.8L54.4003 21.0333C54.4003 21.0333 54.4003 20.6667 54.0337 20.6667C53.667 18.1 51.8336 17 50.0003 17C48.167 17 46.3337 18.1 45.2337 19.9333C45.2337 19.9333 45.2337 20.3 44.867 20.3L37.9003 36.0667L20.667 37.9H20.3003C18.467 38.2667 16.6336 39.7333 15.9003 41.5667C15.5336 43.7667 15.9003 45.9667 17.367 47.4333Z" fill="black"/>
</svg>
