<svg width="100" height="100" viewBox="0 0 100 100" fill="none" xmlns="http://www.w3.org/2000/svg">
<rect x="0.5" y="0.5" width="99" height="99" rx="7.5" stroke="#D2D2D2"/>
<g clip-path="url(#clip0)">
<path d="M66.7502 41.9938C66.5562 41.6165 66.3298 41.2499 66.1141 40.9157V40.851C65.8877 40.4844 65.6505 40.1394 65.3918 39.7729C65.133 39.4063 65.036 39.3093 64.8527 39.0721C64.6694 38.8349 64.4969 38.6301 64.3029 38.4144C63.9579 38.0263 63.6129 37.6598 63.2248 37.3363L62.5348 36.6894C62.2976 36.4846 62.0496 36.269 61.8016 36.0749L61.4243 35.7838C61.3002 35.6799 61.1706 35.5828 61.0362 35.4927C60.7882 35.2987 60.5294 35.1262 60.2707 34.9537C60.0119 34.7812 59.4837 34.4577 59.0955 34.2313C58.923 34.1451 58.7505 34.0588 58.5888 33.9618L57.8449 33.5952C57.5215 33.4443 57.1873 33.2933 56.853 33.164C56.853 33.164 56.7991 33.164 56.7776 33.164C56.3766 32.9871 55.9663 32.8323 55.5485 32.7004C51.634 31.4352 47.4204 31.4352 43.5058 32.7004C43.0772 32.8359 42.6562 32.9943 42.2444 33.1747C38.4125 34.6731 35.1496 37.34 32.9187 40.7971L32.2502 42.0046C31.9814 42.4938 31.7402 42.9977 31.5279 43.514L31.323 44.0099C31.226 44.2363 31.1505 44.4735 31.0643 44.7107C30.99 44.8941 30.9252 45.0812 30.8702 45.2713C30.7408 45.6487 30.6222 46.0368 30.5252 46.4357C30.5252 46.6298 30.4282 46.8346 30.3851 47.0394C30.267 47.4475 30.1698 47.8613 30.094 48.2793C30.0618 48.4394 30.0402 48.6015 30.0293 48.7644C29.9117 49.593 29.8541 50.4289 29.8568 51.2657C29.8575 52.5875 29.9912 53.9058 30.2557 55.2009C30.2608 55.2546 30.2608 55.3088 30.2557 55.3626C31.1139 59.3706 33.2065 63.009 36.2393 65.7665C36.3128 65.8214 36.3814 65.8828 36.4441 65.9498C36.746 66.2085 37.0479 66.4673 37.3605 66.7152L37.4468 66.7799C40.6955 69.2841 44.6463 70.7091 48.7455 70.8552C48.8061 70.8443 48.8682 70.8443 48.9288 70.8552H50.0608C50.1215 70.8446 50.1835 70.8446 50.2441 70.8552C54.318 70.6971 58.2412 69.2725 61.4674 66.7799C61.5137 66.7251 61.5683 66.6778 61.6291 66.6398C61.9418 66.3918 62.2437 66.1438 62.5348 65.8743C65.6456 63.112 67.7945 59.4298 68.6693 55.3626C68.6642 55.3088 68.6642 55.2546 68.6693 55.2009C68.9302 53.9055 69.0602 52.5871 69.0574 51.2657C69.0659 48.0457 68.273 44.8741 66.7502 42.0369C66.7473 42.0301 66.7457 42.0228 66.7457 42.0154C66.7457 42.008 66.7473 42.0006 66.7502 41.9938ZM49.5002 61.4001C47.4937 61.3979 45.5329 60.8009 43.8657 59.6843C42.1985 58.5678 40.8999 56.9819 40.134 55.1273C39.3681 53.2727 39.1694 51.2327 39.5629 49.2651C39.9564 47.2976 40.9246 45.4909 42.3449 44.0736C43.7653 42.6563 45.574 41.692 47.5424 41.3026C49.5107 40.9132 51.5504 41.1163 53.4033 41.8861C55.2563 42.656 56.8394 43.958 57.9524 45.6275C59.0654 47.2971 59.6583 49.2592 59.6562 51.2657C59.6547 52.598 59.3909 53.9169 58.8798 55.1473C58.3686 56.3776 57.6202 57.4952 56.6771 58.4362C55.734 59.3773 54.6148 60.1234 53.3834 60.6319C52.152 61.1405 50.8325 61.4015 49.5002 61.4001Z" fill="#010101"/>
<path d="M49.5001 43.2012C47.9082 43.2033 46.3526 43.6772 45.0298 44.5629C43.7071 45.4487 42.6765 46.7066 42.0683 48.1778C41.46 49.6489 41.3015 51.2673 41.6126 52.8286C41.9236 54.3898 42.6905 55.8239 43.8161 56.9495C44.9418 58.0752 46.3758 58.842 47.9371 59.1531C49.4983 59.4642 51.1167 59.3056 52.5879 58.6974C54.059 58.0892 55.3169 57.0586 56.2027 55.7358C57.0885 54.4131 57.5623 52.8575 57.5645 51.2656C57.5645 49.1267 56.7148 47.0755 55.2025 45.5632C53.6901 44.0508 51.6389 43.2012 49.5001 43.2012Z" fill="#010101"/>
<path d="M83.8595 45.1959C83.437 42.8539 82.162 40.7513 80.2805 39.2939C78.3991 37.8365 76.0445 37.1277 73.6712 37.304C75.0202 35.3382 75.589 32.9405 75.2669 30.5782C74.9447 28.2159 73.7546 26.0581 71.9284 24.5253C70.1022 22.9925 67.7708 22.1945 65.3884 22.2867C63.006 22.3789 60.7433 23.3548 59.041 25.0242C58.8022 22.6582 57.6933 20.4652 55.9294 18.8704C54.1655 17.2756 51.8722 16.3926 49.4942 16.3926C47.1163 16.3926 44.823 17.2756 43.0591 18.8704C41.2952 20.4652 40.1863 22.6582 39.9474 25.0242C38.2452 23.3548 35.9825 22.3789 33.6001 22.2867C31.2177 22.1945 28.8863 22.9925 27.0601 24.5253C25.2339 26.0581 24.0438 28.2159 23.7216 30.5782C23.3994 32.9405 23.9683 35.3382 25.3173 37.304C22.946 37.1259 20.593 37.8345 18.7146 39.2927C16.8361 40.7508 15.566 42.8545 15.1506 45.1959C14.7326 47.54 15.2021 49.9558 16.4676 51.9727C17.7332 53.9896 19.7042 55.4632 21.9967 56.1065C20.1896 57.3939 18.8923 59.2751 18.331 61.4217C17.9459 62.8445 17.8945 64.3371 18.1809 65.7831C18.4673 67.229 19.0837 68.5893 19.9821 69.758C20.8805 70.9266 22.0366 71.872 23.3603 72.5205C24.6841 73.169 26.1397 73.5031 27.6137 73.4967C28.9752 73.5022 30.3216 73.2116 31.5596 72.645C30.99 74.8038 31.1999 77.0944 32.1526 79.1137C33.2197 81.4194 35.1586 83.2071 37.5432 84.0839C38.5986 84.4622 39.7104 84.659 40.8315 84.6661C42.2355 84.6582 43.6215 84.3494 44.896 83.7604C46.9174 82.8212 48.5461 81.2039 49.4996 79.1892C50.4702 81.1839 52.095 82.7859 54.1032 83.7281C55.3677 84.3241 56.7483 84.6334 58.1462 84.6337C59.2674 84.6277 60.3794 84.4309 61.4345 84.0515C63.8178 83.1727 65.7561 81.3857 66.8251 79.0814C67.7778 77.0621 67.9877 74.7715 67.4181 72.6126C69.5831 73.5988 72.0372 73.7456 74.3043 73.0244C76.5714 72.3032 78.4898 70.7656 79.6871 68.7098C80.88 66.6487 81.2648 64.2179 80.7668 61.8891C80.2687 59.5603 78.9234 57.4995 76.9918 56.1065C79.2831 55.459 81.2531 53.9855 82.5215 51.9704C83.7898 49.9554 84.2665 47.5419 83.8595 45.1959ZM70.7279 55.7292C70.7279 55.9664 70.6201 56.2036 70.5554 56.4515C69.5731 60.4299 67.4835 64.0485 64.5287 66.8878L63.9681 67.4161C63.6123 67.7287 63.2565 68.0306 62.8899 68.3109C62.6981 68.4773 62.4965 68.6321 62.2862 68.7745C58.9838 71.2025 55.0559 72.6352 50.9659 72.9037C50.7179 72.9037 50.4699 72.9037 50.2112 72.9037C49.9524 72.9037 49.7476 72.9037 49.4996 72.9037C49.2517 72.9037 49.036 72.9037 48.7881 72.9037H48.0442C43.954 72.6462 40.021 71.233 36.7023 68.8284C36.5082 68.6775 36.3142 68.5373 36.1093 68.3648C35.732 68.0845 35.3762 67.7826 35.0312 67.47L34.4921 66.9525C31.5265 64.1157 29.4319 60.4914 28.4546 56.5055C28.39 56.2575 28.336 56.0095 28.2821 55.7723C28.1851 55.3087 28.1096 54.8451 28.045 54.3708C28.045 54.1228 27.9695 53.864 27.9479 53.6161C27.8612 52.8537 27.818 52.087 27.8185 51.3197C27.8143 48.0106 28.5743 44.7453 30.0395 41.7783C30.1581 41.5411 30.2659 41.3039 30.3953 41.0883C30.6109 40.6678 30.8481 40.2689 31.096 39.8808C31.2222 39.6564 31.3627 39.4403 31.5165 39.2339C33.7957 35.8399 36.9821 33.154 40.7129 31.4822L41.4353 31.1803C41.8665 31.0078 42.2978 30.8461 42.7506 30.7059L43.4729 30.4795C47.4142 29.344 51.5959 29.344 55.5371 30.4795L56.2595 30.7059C56.7015 30.8461 57.1435 31.0078 57.5748 31.1803L58.2864 31.4822C62.0235 33.1531 65.2171 35.8387 67.5043 39.2339C67.6553 39.4387 67.7846 39.6544 67.9248 39.87C68.162 40.2581 68.3992 40.6678 68.6148 41.0883C68.7334 41.3039 68.852 41.5195 68.9706 41.7567C70.4364 44.7312 71.1964 48.0036 71.1915 51.3197C71.1915 52.1067 71.1915 52.8722 71.0729 53.6376C71.0729 53.8748 71.0729 54.1336 70.9759 54.3708C70.9004 54.8128 70.8142 55.2548 70.7279 55.7292Z" fill="#010101"/>
</g>
<defs>
<clipPath id="clip0">
<rect width="69" height="69" fill="white" transform="translate(15 16)"/>
</clipPath>
</defs>
</svg>
