<svg width="100" height="100" viewBox="0 0 100 100" fill="none" xmlns="http://www.w3.org/2000/svg">
<rect x="0.5" y="0.5" width="99" height="99" rx="7.5" stroke="#D2D2D2"/>
<path d="M67.4905 75.1168C66.6805 76.7968 65.7507 78.3118 64.7007 79.6619L61.9999 82.6046L58.2499 78.0001L51.9999 79.8751L59.8107 66.9419C59.8107 66.5968 59.6906 66.2668 59.4658 65.9969L54.4256 59.8468C53.9008 59.2169 60.4556 58.725 59.8107 59.2501C59.1658 59.7751 63.9747 64.2452 64.4999 64.8751L56.8107 67.4819L61.9999 61.7501C69.064 57.3552 56.8858 72.807 57.0356 73.0468L62.6305 82.0168C60.3055 84.2818 57.6208 85.7818 54.8006 86.322C54.1557 86.4419 53.4958 86.5018 52.8209 86.5018C49.1456 86.5018 45.0356 84.6718 41.1658 81.6869V71.1869L44.3156 69.432C44.8708 69.1169 45.1707 68.4868 45.0506 67.8569L43.0855 57.402C42.9357 56.5919 42.1707 56.0519 41.3456 56.2169C40.5206 56.3669 46.8501 52.8153 46.9999 53.6251L46.3749 78.6251L48.8749 80.5001C48.3951 80.77 42.091 81.8201 42.091 82.3751L38.1658 79.0919C32.5108 73.7218 27.8156 66.087 26.4207 58.7068C25.1305 51.9119 26.5709 46.4969 30.6959 42.6118C33.8006 39.6718 38.3006 37.6919 44.4507 36.5219C45.7555 36.2818 47.0907 36.1469 48.4256 36.1469L48.9808 36.1619C49.0855 36.1619 49.2056 36.1769 49.3107 36.2068L58.6106 38.5919C58.7308 38.6219 58.8355 38.667 58.9406 38.7268C64.7608 41.8318 68.7206 47.5168 70.0855 54.7619C71.3907 61.6018 70.4459 69.0269 67.4905 75.1168ZM69.1557 21.7769V29.4567C69.1557 30.2818 68.4958 30.9567 67.6557 30.9567C64.2356 30.9567 61.2807 32.9819 59.9459 35.8918C59.7507 35.8019 59.5555 35.7268 59.3606 35.682L50.1358 33.3269C49.7758 33.2218 49.3708 33.1619 49.0709 33.1619L48.4256 33.1469C50.9008 25.6769 57.9657 20.2769 66.2608 20.2769H67.6557C68.4958 20.2769 69.1557 20.9369 69.1557 21.7769ZM48.5907 16.0619V26.292C47.3156 28.0619 46.2957 30.042 45.5757 32.2019L45.1857 33.3719C44.7507 33.432 44.3306 33.5069 43.8956 33.5817C40.0408 34.3169 36.7555 35.3518 34.0108 36.7319V36.3869C34.0108 33.3118 35.2555 30.4918 37.3708 28.6769V16.0018C37.3708 15.5968 37.5206 15.2218 37.8055 14.9369C38.0907 14.6519 38.4207 14.4718 38.8708 14.5018L47.1058 14.5619C47.9305 14.5619 48.5907 15.2368 48.5907 16.0619Z" fill="#010101"/>
</svg>
